<?xml version="1.0" encoding="UTF-8"?>
<svg version="1.1" xmlns="http://www.w3.org/2000/svg" width="480" height="325">
<path d="M0 0 C1.32041039 -0.01555183 1.32041039 -0.01555183 2.66749573 -0.03141785 C5.5711253 -0.05847555 8.47324325 -0.04882958 11.37695312 -0.03637695 C13.39807557 -0.04228591 15.41919452 -0.04953265 17.44030762 -0.05805969 C21.67376966 -0.06993799 25.90670587 -0.06323498 30.14013672 -0.04394531 C35.56460691 -0.02105296 40.98751132 -0.04784291 46.41182709 -0.08900738 C50.58464195 -0.11458454 54.75708208 -0.11200581 58.9299469 -0.10111427 C60.92982912 -0.09962753 62.92974005 -0.10731826 64.92955017 -0.12436485 C67.72613467 -0.14433445 70.5199494 -0.12595403 73.31640625 -0.09765625 C74.14149185 -0.11137268 74.96657745 -0.12508911 75.81666565 -0.13922119 C78.93369751 -0.0762001 81.22434691 -0.01539797 83.79423809 1.85105896 C86.81770082 5.1499779 87.77732619 7.91355648 87.72583008 12.30102539 C87.72545242 13.38169281 87.72507477 14.46236023 87.72468567 15.57577515 C87.69887924 16.72599152 87.67307281 17.87620789 87.64648438 19.0612793 C87.63587227 20.84642441 87.63587227 20.84642441 87.62504578 22.66763306 C87.59711955 26.45834946 87.53437886 30.2475739 87.47070312 34.0378418 C87.44561821 36.61203918 87.42280539 39.18625977 87.40234375 41.76049805 C87.34729834 48.06178595 87.2636873 54.36220727 87.15820312 60.6628418 C87.72015381 60.46585693 88.28210449 60.26887207 88.86108398 60.06591797 C93.78825275 58.37522788 98.61731581 57.01583824 103.72070312 55.9753418 C104.93886719 55.72397461 106.15703125 55.47260742 107.41210938 55.21362305 C108.31832031 55.03186523 109.22453125 54.85010742 110.15820312 54.6628418 C110.1703334 53.73322884 110.1703334 53.73322884 110.18270874 52.78483582 C110.26864832 46.34478952 110.36814714 39.90505481 110.47558594 33.46533203 C110.51391094 31.06076279 110.54875754 28.65613552 110.58007812 26.25146484 C110.62565195 22.79853552 110.68365943 19.34600689 110.74414062 15.89331055 C110.75569183 14.81510544 110.76724304 13.73690033 110.77914429 12.62602234 C110.79901398 11.62521133 110.81888367 10.62440033 110.83935547 9.59326172 C110.85267914 8.71167892 110.86600281 7.83009613 110.87973022 6.92179871 C111.15820312 4.6628418 111.15820312 4.6628418 113.15820312 1.6628418 C117.01263161 0.3780323 120.66332547 0.49896807 124.68115234 0.48583984 C125.55138031 0.47926865 126.42160828 0.47269745 127.31820679 0.46592712 C130.19976893 0.44620603 133.08127904 0.43453542 135.96289062 0.42456055 C137.43879858 0.41844726 137.43879858 0.41844726 138.94452286 0.41221046 C144.15035034 0.39135683 149.35615151 0.3770509 154.56201172 0.36767578 C159.94131201 0.35660057 165.32019987 0.32218577 170.69935417 0.28250408 C174.83432797 0.25637734 178.96920278 0.24798755 183.10425186 0.2443943 C185.0874015 0.23951974 187.07054646 0.22788109 189.05361557 0.20935631 C191.82823307 0.18504419 194.60177375 0.1859151 197.37646484 0.19287109 C198.60478027 0.17365601 198.60478027 0.17365601 199.85791016 0.15405273 C203.55125464 0.18780571 205.80981623 0.49020639 209.16584778 2.1532135 C211.98307689 5.7018766 211.86345956 8.94127583 211.81762695 13.28686523 C211.82811066 14.15551712 211.83859436 15.02416901 211.84939575 15.91914368 C211.87817199 18.78719692 211.87185128 21.6540449 211.86523438 24.5222168 C211.87834786 26.51191727 211.893651 28.50160442 211.91105652 30.49127197 C211.95096024 35.72575888 211.96110044 40.95989797 211.96508789 46.19451904 C211.97440918 51.53693224 212.01181642 56.87914021 212.046875 62.22143555 C212.11150561 72.70189467 212.14470083 83.18220085 212.15820312 93.6628418 C213.3041243 93.66870804 214.45004547 93.67457428 215.63069153 93.68061829 C226.41683031 93.73776956 237.20276601 93.81049116 247.98869801 93.89855671 C253.53419868 93.94333177 259.07962467 93.9825721 264.62524414 94.00927734 C269.97459269 94.03523918 275.32365493 94.07559084 280.67282677 94.12602806 C282.71617771 94.14274506 284.75957822 94.15422914 286.80298805 94.1604557 C289.65973734 94.17004433 292.51574609 94.19804034 295.37231445 94.23046875 C296.22179657 94.22903366 297.07127869 94.22759857 297.94650269 94.22612 C303.69773541 94.31877918 303.69773541 94.31877918 305.87523365 95.94581127 C308.15556455 98.99763583 307.57245829 102.82597266 307.54638672 106.49291992 C307.55427216 107.84697182 307.55427216 107.84697182 307.56231689 109.2283783 C307.57553828 112.21712463 307.5667712 115.20533989 307.55664062 118.1940918 C307.55866074 120.26770124 307.56157166 122.34130999 307.56533813 124.41491699 C307.56976439 128.76276406 307.56332067 133.11042635 307.54931641 137.45825195 C307.53222444 143.03725136 307.542064 148.61581782 307.5600338 154.19480133 C307.57086344 158.4772672 307.56742904 162.75963007 307.55965042 167.042099 C307.55764615 169.09944205 307.56011562 171.15679438 307.56708908 173.21412659 C307.57469002 176.08725836 307.56311834 178.95968458 307.54638672 181.83276367 C307.55245941 182.68688339 307.5585321 183.54100311 307.56478882 184.42100525 C307.50196437 190.23080851 307.50196437 190.23080851 305.82189369 192.34229279 C301.90795061 195.44897246 297.28550932 194.79683495 292.5559082 194.77636719 C291.67764877 194.77651321 290.79938934 194.77665924 289.89451599 194.77680969 C286.98889707 194.77611251 284.08334211 194.76832919 281.17773438 194.76049805 C279.16420019 194.75863318 277.15066554 194.7572096 275.13713074 194.75621033 C269.83528391 194.75239059 264.53346443 194.74256492 259.23162842 194.73150635 C253.82239146 194.72128056 248.41315009 194.7167102 243.00390625 194.71166992 C232.38865985 194.70094219 221.77343376 194.68387225 211.15820312 194.6628418 C211.16930618 195.79179367 211.18040924 196.92074554 211.19184875 198.08390808 C211.2931972 208.72203393 211.36815541 219.36006186 211.41726398 229.99856091 C211.4433601 235.46799524 211.47875901 240.93703993 211.53540039 246.40625 C211.58971876 251.68416995 211.61962355 256.96171507 211.63258934 262.23989296 C211.64182947 264.25377618 211.65987343 266.26763884 211.68685341 268.28136253 C211.72314125 271.10192603 211.72814857 273.92093993 211.72583008 276.74169922 C211.74380646 277.57464005 211.76178284 278.40758087 211.78030396 279.26576233 C211.74434292 283.30778288 211.44504852 285.22749269 209.16960144 288.68096924 C205.11874326 291.34693495 202.16057116 291.36206259 197.40820312 291.29394531 C196.1024231 291.30467827 196.1024231 291.30467827 194.77026367 291.31562805 C191.8990394 291.33250645 189.02937842 291.31311775 186.15820312 291.29174805 C184.1595039 291.29257682 182.16080473 291.29503654 180.16210938 291.29905701 C175.97570246 291.30191442 171.78983072 291.2872191 167.60351562 291.25976562 C162.23984928 291.22568315 156.87713988 291.2317017 151.51342773 291.2504282 C147.38696328 291.26100152 143.26072113 291.2520573 139.13427734 291.23704338 C137.156745 291.23186356 135.17918942 291.23234094 133.20166016 291.23858833 C130.43666745 291.2440445 127.6730402 291.22365276 124.90820312 291.19628906 C123.68460083 291.20607788 123.68460083 291.20607788 122.4362793 291.21606445 C118.70779312 291.1533856 116.50619351 290.8441431 113.14680481 289.09391785 C110.50464291 285.86386098 110.48738803 283.22894075 110.59057617 279.23217773 C110.58948097 278.11939453 110.58948097 278.11939453 110.58836365 276.98413086 C110.5918407 274.5377429 110.6307034 272.09327108 110.66992188 269.6472168 C110.67924968 267.94900554 110.68636595 266.2507808 110.69136047 264.55255127 C110.71043307 260.0871452 110.7595355 255.6225549 110.81488037 251.1574707 C110.86606758 246.5994775 110.88887335 242.04135221 110.9140625 237.4831543 C110.96765448 228.5426921 111.05297003 219.60283484 111.15820312 210.6628418 C110.49820313 210.6628418 109.83820313 210.6628418 109.15820312 210.6628418 C108.76181641 211.55229492 108.76181641 211.55229492 108.35742188 212.4597168 C107.11449887 214.74313234 105.85418667 216.13710903 103.97070312 217.9128418 C100.13096402 221.64105321 96.63504972 225.59805246 93.15820312 229.6628418 C92.67035339 230.11347992 92.18250366 230.56411804 91.67987061 231.02841187 C88.28177284 234.40168953 86.75561936 236.85238402 86.5246582 241.69262695 C86.54571707 243.61294859 86.59837091 245.53310778 86.67773438 247.4519043 C86.70114143 248.98408096 86.70114143 248.98408096 86.72502136 250.54721069 C86.77823587 253.79542192 86.87169992 257.0407294 86.97070312 260.2878418 C87.05371244 263.54180703 87.1278174 266.79535874 87.18424988 270.04989624 C87.22086144 272.07030786 87.27351878 274.09050882 87.3441925 276.11001587 C87.52800379 284.72236092 87.52800379 284.72236092 84.15820312 288.6628418 C80.30242825 291.23335838 77.1079058 290.96562574 72.63525391 290.96923828 C71.76502594 290.9775618 70.89479797 290.98588531 69.99819946 290.99446106 C67.1165929 291.01858965 64.23521255 291.02733659 61.35351562 291.03393555 C59.35195853 291.04289959 57.35040213 291.05202139 55.34884644 291.06129456 C51.15067922 291.0777948 46.95259186 291.08548657 42.75439453 291.08837891 C37.3749596 291.09376423 31.99627504 291.13144622 26.61705208 291.17712307 C22.48205831 291.20686573 18.34724584 291.21410186 14.21215439 291.21510506 C12.22899818 291.21931279 10.24584171 291.23176918 8.26279068 291.2526226 C5.48794636 291.27947952 2.71484933 291.2747288 -0.06005859 291.26220703 C-1.28837402 291.28445847 -1.28837402 291.28445847 -2.54150391 291.30715942 C-6.54350327 291.25573341 -8.43435221 290.9313218 -11.85517883 288.67721558 C-14.54370644 284.59780677 -14.513864 281.61843567 -14.40942383 276.83349609 C-14.41015396 275.95494461 -14.41088409 275.07639313 -14.41163635 274.17121887 C-14.40816111 271.2758649 -14.36930328 268.38213243 -14.33007812 265.48706055 C-14.32074977 263.47639342 -14.31363376 261.46571491 -14.30863953 259.45503235 C-14.28957159 254.16934698 -14.2404721 248.88435132 -14.18511963 243.59893799 C-14.133923 238.20301646 -14.11112457 232.80698321 -14.0859375 227.41088867 C-14.03235354 216.82790377 -13.94704283 206.24543019 -13.84179688 195.6628418 C-14.9456926 195.67394485 -16.04958832 195.68504791 -17.18693542 195.69648743 C-27.58960081 195.79784144 -37.99216603 195.87279672 -48.39521313 195.92190266 C-53.74358382 195.94799739 -59.09155596 195.98339367 -64.43969727 196.04003906 C-69.60090871 196.09436252 -74.76173678 196.12426326 -79.92321205 196.13722801 C-81.89243925 196.14646724 -83.86164545 196.16450948 -85.83070946 196.19149208 C-88.58901698 196.22778692 -91.34574019 196.23278699 -94.10424805 196.23046875 C-95.32560707 196.25743332 -95.32560707 196.25743332 -96.57164001 196.28494263 C-100.56879243 196.2485889 -102.43328792 195.93311898 -105.84745789 193.67424011 C-108.52848388 189.62596286 -108.54780323 186.67078148 -108.48876953 181.9128418 C-108.49753113 181.04232178 -108.50629272 180.17180176 -108.51531982 179.27490234 C-108.53728682 176.40370515 -108.52277087 173.53405404 -108.50585938 170.6628418 C-108.50922829 168.66414088 -108.51408154 166.66544196 -108.52035522 164.66674805 C-108.5277229 160.48035148 -108.51702428 156.29448876 -108.49365234 152.1081543 C-108.46516481 146.74435941 -108.48156932 141.38181541 -108.51151466 136.01806641 C-108.52959037 131.89158722 -108.52382831 127.76540416 -108.5108757 123.63891602 C-108.50754246 121.66137544 -108.5116259 119.68380791 -108.52327347 117.70629883 C-108.53598661 114.94108976 -108.51659925 112.17790055 -108.48876953 109.4128418 C-108.50395126 108.1892395 -108.50395126 108.1892395 -108.5194397 106.94091797 C-108.44332417 102.85460141 -108.13729949 101.08022536 -105.70976257 97.65144348 C-102.26054385 95.25981022 -100.47610474 95.05474172 -96.30737305 95.09521484 C-94.35591621 95.09578133 -94.35591621 95.09578133 -92.36503601 95.09635925 C-90.95493605 95.12188885 -89.54484596 95.14796877 -88.13476562 95.17456055 C-86.68460816 95.18389276 -85.23443488 95.19100695 -83.78425598 95.19599915 C-79.97803788 95.21503745 -76.17278256 95.26410874 -72.36694336 95.31951904 C-68.47913638 95.37078125 -64.59117294 95.39352792 -60.703125 95.41870117 C-53.08224463 95.47223243 -45.46215595 95.55750442 -37.84179688 95.6628418 C-37.64354309 95.04587433 -37.44528931 94.42890686 -37.24102783 93.79324341 C-36.97683044 92.98337982 -36.71263306 92.17351624 -36.44042969 91.33911133 C-36.1803009 90.53651886 -35.92017212 89.73392639 -35.65216064 88.90701294 C-32.96449703 81.46396408 -26.84906804 74.70443472 -20.84179688 69.6628418 C-19.82617676 69.24558838 -18.81055664 68.82833496 -17.76416016 68.3984375 C-15.3370529 66.77176388 -14.89475774 65.92553303 -14.30830383 63.0166626 C-14.131345 59.43970957 -14.14335989 55.90373914 -14.21289062 52.32299805 C-14.21006717 50.31503179 -14.2072167 48.30706514 -14.20276737 46.29910183 C-14.20337581 42.77430106 -14.24372034 39.24993131 -14.27929688 35.7253418 C-14.31790844 31.52375638 -14.34767212 27.32273781 -14.34059143 23.12095642 C-14.33881898 20.50543613 -14.36013924 17.8897773 -14.40684509 15.27467346 C-14.40656815 14.08671677 -14.4062912 12.89876007 -14.40600586 11.67480469 C-14.41744125 10.63207901 -14.42887665 9.58935333 -14.44065857 8.51502991 C-12.75909893 0.50629524 -6.93910934 -0.07190787 0 0 Z " fill="#6FD8D6" transform="translate(141.841796875,16.337158203125)"/>
<path d="M0 0 C1.32041039 -0.01555183 1.32041039 -0.01555183 2.66749573 -0.03141785 C5.5711253 -0.05847555 8.47324325 -0.04882958 11.37695312 -0.03637695 C13.39807557 -0.04228591 15.41919452 -0.04953265 17.44030762 -0.05805969 C21.67376966 -0.06993799 25.90670587 -0.06323498 30.14013672 -0.04394531 C35.56460691 -0.02105296 40.98751132 -0.04784291 46.41182709 -0.08900738 C50.58464195 -0.11458454 54.75708208 -0.11200581 58.9299469 -0.10111427 C60.92982912 -0.09962753 62.92974005 -0.10731826 64.92955017 -0.12436485 C67.72613467 -0.14433445 70.5199494 -0.12595403 73.31640625 -0.09765625 C74.14149185 -0.11137268 74.96657745 -0.12508911 75.81666565 -0.13922119 C78.93369751 -0.0762001 81.22434691 -0.01539797 83.79423809 1.85105896 C86.81770082 5.1499779 87.77732619 7.91355648 87.72583008 12.30102539 C87.72545242 13.38169281 87.72507477 14.46236023 87.72468567 15.57577515 C87.69887924 16.72599152 87.67307281 17.87620789 87.64648438 19.0612793 C87.63587227 20.84642441 87.63587227 20.84642441 87.62504578 22.66763306 C87.59711955 26.45834946 87.53437886 30.2475739 87.47070312 34.0378418 C87.44561821 36.61203918 87.42280539 39.18625977 87.40234375 41.76049805 C87.34729834 48.06178595 87.2636873 54.36220727 87.15820312 60.6628418 C88.33382812 60.2297168 89.50945312 59.7965918 90.72070312 59.3503418 C97.39601816 57.2786923 104.30454306 56.03357381 111.15820312 54.6628418 C111.15820312 67.8628418 111.15820312 81.0628418 111.15820312 94.6628418 C104.76832031 94.70022461 98.3784375 94.73760742 91.79492188 94.77612305 C87.75257691 94.80639051 83.71027663 94.83753032 79.66796875 94.87182617 C73.24847626 94.92620707 66.82907218 94.97731452 60.40942383 95.00927734 C55.23513419 95.03524137 50.06114045 95.07559456 44.88703346 95.12602806 C42.91066982 95.14274358 40.93425495 95.15422859 38.95783043 95.1604557 C36.19447 95.17004598 33.43187462 95.19804376 30.66870117 95.23046875 C29.43655632 95.22831612 29.43655632 95.22831612 28.17951965 95.22612 C24.04934851 95.19747002 24.04934851 95.19747002 20.44829082 96.95055676 C18.18226106 99.95817311 18.74369139 103.6873733 18.77001953 107.30932617 C18.76476257 108.19252029 18.75950562 109.07571442 18.75408936 109.985672 C18.74086923 112.90949103 18.74963457 115.83276708 18.75976562 118.7565918 C18.75774547 120.78536077 18.75483452 122.81412903 18.75106812 124.84289551 C18.74664203 129.0965872 18.75308501 133.35009001 18.76708984 137.60375977 C18.78418181 143.06169417 18.77434216 148.51918603 18.75637245 153.97710419 C18.74554233 158.16692451 18.74897742 162.35663956 18.75675583 166.54646301 C18.75875997 168.55914868 18.75629109 170.57184385 18.74931717 172.58451843 C18.74171543 175.39538971 18.75328895 178.20553997 18.77001953 181.01635742 C18.76394684 181.85177567 18.75787415 182.68719391 18.75161743 183.54792786 C18.69089169 187.72678236 18.69089169 187.72678236 20.44591808 191.37512684 C23.44462485 193.63028849 27.14918923 193.10145301 30.76049805 193.09521484 C31.63875748 193.10540649 32.51701691 193.11559814 33.42189026 193.12609863 C36.32754829 193.1563154 39.23287713 193.16550781 42.13867188 193.17456055 C44.15221764 193.1914008 46.16575286 193.20955014 48.17927551 193.22895813 C53.48107607 193.27653524 58.78283385 193.30629472 64.08477783 193.33239746 C69.49410453 193.3621641 74.90328369 193.40870777 80.3125 193.45385742 C90.92767433 193.53997841 101.54283301 193.60573429 112.15820312 193.6628418 C112.15820312 199.6028418 112.15820312 205.5428418 112.15820312 211.6628418 C111.16820312 211.3328418 110.17820313 211.0028418 109.15820312 210.6628418 C108.76181641 211.55229492 108.76181641 211.55229492 108.35742188 212.4597168 C107.11449887 214.74313234 105.85418667 216.13710903 103.97070312 217.9128418 C100.13096402 221.64105321 96.63504972 225.59805246 93.15820312 229.6628418 C92.67035339 230.11347992 92.18250366 230.56411804 91.67987061 231.02841187 C88.28177284 234.40168953 86.75561936 236.85238402 86.5246582 241.69262695 C86.54571707 243.61294859 86.59837091 245.53310778 86.67773438 247.4519043 C86.70114143 248.98408096 86.70114143 248.98408096 86.72502136 250.54721069 C86.77823587 253.79542192 86.87169992 257.0407294 86.97070312 260.2878418 C87.05371244 263.54180703 87.1278174 266.79535874 87.18424988 270.04989624 C87.22086144 272.07030786 87.27351878 274.09050882 87.3441925 276.11001587 C87.52800379 284.72236092 87.52800379 284.72236092 84.15820312 288.6628418 C80.30242825 291.23335838 77.1079058 290.96562574 72.63525391 290.96923828 C71.76502594 290.9775618 70.89479797 290.98588531 69.99819946 290.99446106 C67.1165929 291.01858965 64.23521255 291.02733659 61.35351562 291.03393555 C59.35195853 291.04289959 57.35040213 291.05202139 55.34884644 291.06129456 C51.15067922 291.0777948 46.95259186 291.08548657 42.75439453 291.08837891 C37.3749596 291.09376423 31.99627504 291.13144622 26.61705208 291.17712307 C22.48205831 291.20686573 18.34724584 291.21410186 14.21215439 291.21510506 C12.22899818 291.21931279 10.24584171 291.23176918 8.26279068 291.2526226 C5.48794636 291.27947952 2.71484933 291.2747288 -0.06005859 291.26220703 C-1.28837402 291.28445847 -1.28837402 291.28445847 -2.54150391 291.30715942 C-6.54350327 291.25573341 -8.43435221 290.9313218 -11.85517883 288.67721558 C-14.54370644 284.59780677 -14.513864 281.61843567 -14.40942383 276.83349609 C-14.41015396 275.95494461 -14.41088409 275.07639313 -14.41163635 274.17121887 C-14.40816111 271.2758649 -14.36930328 268.38213243 -14.33007812 265.48706055 C-14.32074977 263.47639342 -14.31363376 261.46571491 -14.30863953 259.45503235 C-14.28957159 254.16934698 -14.2404721 248.88435132 -14.18511963 243.59893799 C-14.133923 238.20301646 -14.11112457 232.80698321 -14.0859375 227.41088867 C-14.03235354 216.82790377 -13.94704283 206.24543019 -13.84179688 195.6628418 C-14.9456926 195.67394485 -16.04958832 195.68504791 -17.18693542 195.69648743 C-27.58960081 195.79784144 -37.99216603 195.87279672 -48.39521313 195.92190266 C-53.74358382 195.94799739 -59.09155596 195.98339367 -64.43969727 196.04003906 C-69.60090871 196.09436252 -74.76173678 196.12426326 -79.92321205 196.13722801 C-81.89243925 196.14646724 -83.86164545 196.16450948 -85.83070946 196.19149208 C-88.58901698 196.22778692 -91.34574019 196.23278699 -94.10424805 196.23046875 C-95.32560707 196.25743332 -95.32560707 196.25743332 -96.57164001 196.28494263 C-100.56879243 196.2485889 -102.43328792 195.93311898 -105.84745789 193.67424011 C-108.52848388 189.62596286 -108.54780323 186.67078148 -108.48876953 181.9128418 C-108.49753113 181.04232178 -108.50629272 180.17180176 -108.51531982 179.27490234 C-108.53728682 176.40370515 -108.52277087 173.53405404 -108.50585938 170.6628418 C-108.50922829 168.66414088 -108.51408154 166.66544196 -108.52035522 164.66674805 C-108.5277229 160.48035148 -108.51702428 156.29448876 -108.49365234 152.1081543 C-108.46516481 146.74435941 -108.48156932 141.38181541 -108.51151466 136.01806641 C-108.52959037 131.89158722 -108.52382831 127.76540416 -108.5108757 123.63891602 C-108.50754246 121.66137544 -108.5116259 119.68380791 -108.52327347 117.70629883 C-108.53598661 114.94108976 -108.51659925 112.17790055 -108.48876953 109.4128418 C-108.50395126 108.1892395 -108.50395126 108.1892395 -108.5194397 106.94091797 C-108.44332417 102.85460141 -108.13729949 101.08022536 -105.70976257 97.65144348 C-102.26054385 95.25981022 -100.47610474 95.05474172 -96.30737305 95.09521484 C-94.35591621 95.09578133 -94.35591621 95.09578133 -92.36503601 95.09635925 C-90.95493605 95.12188885 -89.54484596 95.14796877 -88.13476562 95.17456055 C-86.68460816 95.18389276 -85.23443488 95.19100695 -83.78425598 95.19599915 C-79.97803788 95.21503745 -76.17278256 95.26410874 -72.36694336 95.31951904 C-68.47913638 95.37078125 -64.59117294 95.39352792 -60.703125 95.41870117 C-53.08224463 95.47223243 -45.46215595 95.55750442 -37.84179688 95.6628418 C-37.64354309 95.04587433 -37.44528931 94.42890686 -37.24102783 93.79324341 C-36.97683044 92.98337982 -36.71263306 92.17351624 -36.44042969 91.33911133 C-36.1803009 90.53651886 -35.92017212 89.73392639 -35.65216064 88.90701294 C-32.96449703 81.46396408 -26.84906804 74.70443472 -20.84179688 69.6628418 C-19.82617676 69.24558838 -18.81055664 68.82833496 -17.76416016 68.3984375 C-15.3370529 66.77176388 -14.89475774 65.92553303 -14.30830383 63.0166626 C-14.131345 59.43970957 -14.14335989 55.90373914 -14.21289062 52.32299805 C-14.21006717 50.31503179 -14.2072167 48.30706514 -14.20276737 46.29910183 C-14.20337581 42.77430106 -14.24372034 39.24993131 -14.27929688 35.7253418 C-14.31790844 31.52375638 -14.34767212 27.32273781 -14.34059143 23.12095642 C-14.33881898 20.50543613 -14.36013924 17.8897773 -14.40684509 15.27467346 C-14.40656815 14.08671677 -14.4062912 12.89876007 -14.40600586 11.67480469 C-14.41744125 10.63207901 -14.42887665 9.58935333 -14.44065857 8.51502991 C-12.75909893 0.50629524 -6.93910934 -0.07190787 0 0 Z " fill="#42A09F" transform="translate(141.841796875,16.337158203125)"/>
<path d="M0 0 C1.95145683 0.00056648 1.95145683 0.00056648 3.94233704 0.00114441 C5.352437 0.02667401 6.76252709 0.05275393 8.17260742 0.0793457 C9.62276488 0.08867792 11.07293817 0.09579211 12.52311707 0.1007843 C16.32933517 0.1198226 20.13459049 0.1688939 23.94042969 0.2243042 C27.82823667 0.27556641 31.7162001 0.29831308 35.60424805 0.32348633 C43.22512841 0.37701759 50.8452171 0.46228958 58.46557617 0.56762695 C58.3246907 1.38457031 58.18380524 2.20151367 58.03865051 3.04321289 C57.85573959 4.11861328 57.67282867 5.19401367 57.484375 6.30200195 C57.30223953 7.36644531 57.12010406 8.43088867 56.93244934 9.52758789 C54.33756419 26.42415154 58.24979359 42.28985779 67.46557617 56.56762695 C70.56544109 60.65866764 74.16038158 64.26892292 77.79321289 67.88305664 C80.8228706 70.93482864 83.72811406 74.10346944 86.65307617 77.25512695 C87.84577786 78.53117483 89.03848601 79.80721667 90.23120117 81.08325195 C92.81996937 83.86311722 95.37344643 86.67118085 97.90307617 89.50512695 C103.0377491 95.24948276 108.33048196 100.84391318 113.60620117 106.45825195 C130.25451273 124.17526155 130.25451273 124.17526155 135.90307617 130.8215332 C137.13197072 132.19482286 138.41638874 133.51843952 139.71948242 134.8215332 C143.0241413 138.12619208 146.21566937 141.52534259 149.40307617 144.94262695 C150.29542969 145.89395508 150.29542969 145.89395508 151.20581055 146.86450195 C155.07410785 151.00759634 158.80391626 155.24071891 162.46557617 159.56762695 C166.16974559 157.8540907 168.21948803 155.85729903 170.90307617 152.75512695 C172.07870117 151.41901367 172.07870117 151.41901367 173.27807617 150.0559082 C173.99995117 149.23477539 174.72182617 148.41364258 175.46557617 147.56762695 C177.08510476 145.80405376 178.69187085 144.18008634 180.46557617 142.56762695 C181.12557617 142.56762695 181.78557617 142.56762695 182.46557617 142.56762695 C183.41087768 151.62603363 183.68222697 160.62626158 183.70581055 169.72460938 C183.71566618 172.02614542 183.74687495 174.32684028 183.77807617 176.62817383 C183.7845952 178.10668425 183.78984997 179.58520092 183.79370117 181.0637207 C183.80604797 181.74397812 183.81839478 182.42423553 183.83111572 183.12510681 C183.81087956 187.45133389 183.11886609 190.13599203 180.46557617 193.56762695 C176.6098013 196.13814354 173.41527884 195.8704109 168.94262695 195.87402344 C168.07239899 195.88234695 167.20217102 195.89067047 166.30557251 195.89924622 C163.42396594 195.9233748 160.5425856 195.93212175 157.66088867 195.9387207 C155.65933157 195.94768475 153.65777517 195.95680655 151.65621948 195.96607971 C147.45805227 195.98257996 143.25996491 195.99027173 139.06176758 195.99316406 C133.68233264 195.99854939 128.30364809 196.03623138 122.92442513 196.08190823 C118.78943135 196.11165089 114.65461889 196.11888701 110.51952744 196.11989021 C108.53637123 196.12409794 106.55321475 196.13655433 104.57016373 196.15740776 C101.79531941 196.18426468 99.02222238 196.17951396 96.24731445 196.16699219 C95.01899902 196.18924362 95.01899902 196.18924362 93.76586914 196.21194458 C89.76386978 196.16051857 87.87302083 195.83610696 84.45219421 193.58200073 C81.76366661 189.50259193 81.79350905 186.52322083 81.89794922 181.73828125 C81.89721909 180.85972977 81.89648895 179.98117828 81.89573669 179.07600403 C81.89921194 176.18065005 81.93806977 173.28691759 81.97729492 170.3918457 C81.98662328 168.38117858 81.99373928 166.37050007 81.99873352 164.3598175 C82.01780146 159.07413214 82.06690094 153.78913647 82.12225342 148.50372314 C82.17345004 143.10780161 82.19624848 137.71176836 82.22143555 132.31567383 C82.27501951 121.73268892 82.36033021 111.15021535 82.46557617 100.56762695 C81.36168045 100.57873001 80.25778473 100.58983307 79.12043762 100.60127258 C68.71777224 100.7026266 58.31520701 100.77758188 47.91215992 100.82668781 C42.56378922 100.85278255 37.21581709 100.88817883 31.86767578 100.94482422 C26.70646434 100.99914768 21.54563626 101.02904842 16.384161 101.04201317 C14.41493379 101.0512524 12.4457276 101.06929464 10.47666359 101.09627724 C7.71835607 101.13257208 4.96163286 101.13757214 2.203125 101.13525391 C1.38888565 101.15323029 0.5746463 101.17120667 -0.26426697 101.18972778 C-4.26141938 101.15337405 -6.12591488 100.83790414 -9.54008484 98.57902527 C-12.22111083 94.53074802 -12.24043018 91.57556663 -12.18139648 86.81762695 C-12.19015808 85.94710693 -12.19891968 85.07658691 -12.20794678 84.1796875 C-12.22991377 81.30849031 -12.21539782 78.43883919 -12.19848633 75.56762695 C-12.20185524 73.56892603 -12.20670849 71.57022711 -12.21298218 69.5715332 C-12.22034985 65.38513663 -12.20965123 61.19927391 -12.1862793 57.01293945 C-12.15779177 51.64914457 -12.17419628 46.28660056 -12.20414162 40.92285156 C-12.22221732 36.79637238 -12.21645527 32.67018932 -12.20350266 28.54370117 C-12.20016941 26.5661606 -12.20425286 24.58859306 -12.21590042 22.61108398 C-12.22861356 19.84587492 -12.20922621 17.08268571 -12.18139648 14.31762695 C-12.19657822 13.09402466 -12.19657822 13.09402466 -12.21206665 11.84570312 C-12.13595112 7.75938656 -11.82992644 5.98501052 -9.40238953 2.55622864 C-5.9531708 0.16459537 -4.1687317 -0.04047312 0 0 Z " fill="#6FD8D6" transform="translate(45.534423828125,111.432373046875)"/>
<path d="M0 0 C1.32041039 -0.01555183 1.32041039 -0.01555183 2.66749573 -0.03141785 C5.5711253 -0.05847555 8.47324325 -0.04882958 11.37695312 -0.03637695 C13.39807557 -0.04228591 15.41919452 -0.04953265 17.44030762 -0.05805969 C21.67376966 -0.06993799 25.90670587 -0.06323498 30.14013672 -0.04394531 C35.56460691 -0.02105296 40.98751132 -0.04784291 46.41182709 -0.08900738 C50.58464195 -0.11458454 54.75708208 -0.11200581 58.9299469 -0.10111427 C60.92982912 -0.09962753 62.92974005 -0.10731826 64.92955017 -0.12436485 C67.72613467 -0.14433445 70.5199494 -0.12595403 73.31640625 -0.09765625 C74.14149185 -0.11137268 74.96657745 -0.12508911 75.81666565 -0.13922119 C81.25127118 -0.02934269 81.25127118 -0.02934269 83.79368019 1.91106319 C87.4500998 6.02545521 87.84035904 9.76058495 87.68164062 15.03393555 C87.67693756 15.83332047 87.6722345 16.63270538 87.66738892 17.45631409 C87.64615411 20.00521918 87.58977378 22.55200303 87.53320312 25.1003418 C87.51667078 26.77675376 87.50232927 28.45318883 87.49023438 30.12963867 C87.22225725 57.01854267 87.22225725 57.01854267 85.15820312 64.6628418 C83.11914062 66.4362793 83.11914062 66.4362793 80.53320312 68.0378418 C75.80681431 71.12765058 71.9682562 74.51215484 68.15820312 78.6628418 C65.09054248 77.30612042 63.12163559 75.8000925 60.84570312 73.3503418 C57.53742321 69.95759516 54.17096362 67.17961702 50.15820312 64.6628418 C49.33835937 64.14077148 49.33835937 64.14077148 48.50195312 63.6081543 C34.21470148 55.52457771 17.25825498 54.89761088 1.72802734 58.94897461 C-3.1689232 60.33081734 -7.41768207 62.18533751 -11.84179688 64.6628418 C-12.50179687 64.6628418 -13.16179687 64.6628418 -13.84179688 64.6628418 C-13.95779234 57.05674791 -14.04656325 49.45074606 -14.10085773 41.84396839 C-14.12692076 38.31151335 -14.16225553 34.77966467 -14.21899414 31.24755859 C-14.28385752 27.18410518 -14.30800419 23.12128581 -14.33007812 19.05737305 C-14.35588455 17.7926265 -14.38169098 16.52787994 -14.40827942 15.22480774 C-14.40865707 14.04396103 -14.40903473 12.86311432 -14.40942383 11.64648438 C-14.42052689 10.60945877 -14.43162994 9.57243317 -14.44306946 8.50398254 C-12.75020587 0.50484228 -6.93455142 -0.07186064 0 0 Z " fill="#6FD8D6" transform="translate(141.841796875,16.337158203125)"/>
<path d="M0 0 C0.87022797 -0.0065712 1.74045593 -0.0131424 2.63705444 -0.01991272 C5.51861659 -0.03963381 8.4001267 -0.05130443 11.28173828 -0.0612793 C12.75764624 -0.06739259 12.75764624 -0.06739259 14.26337051 -0.07362938 C19.469198 -0.09448301 24.67499916 -0.10878895 29.88085938 -0.11816406 C35.26015966 -0.12923927 40.63904752 -0.16365408 46.01820183 -0.20333576 C50.15317562 -0.22946251 54.28805044 -0.23785229 58.42309952 -0.24144554 C60.40624915 -0.2463201 62.38939412 -0.25795875 64.37246323 -0.27648354 C67.14708073 -0.30079565 69.9206214 -0.29992475 72.6953125 -0.29296875 C73.51418945 -0.30577881 74.33306641 -0.31858887 75.17675781 -0.33178711 C78.87168344 -0.29801968 81.1316201 0.00615733 84.49043274 1.66737366 C87.30713317 5.22561734 87.140228 8.45397014 87.04467773 12.80102539 C87.04540787 13.66967728 87.046138 14.53832916 87.04689026 15.43330383 C87.04340957 18.30163232 87.00452617 21.16833254 86.96533203 24.03637695 C86.95600561 26.02605299 86.94888869 28.01574051 86.94389343 30.00543213 C86.92481025 35.24017077 86.87569771 40.47421483 86.82037354 45.7086792 C86.76920974 51.05088911 86.7463855 56.39321136 86.72119141 61.7355957 C86.66758056 72.21636949 86.58225147 82.69662794 86.47705078 93.17700195 C86.14705078 93.17700195 85.81705078 93.17700195 85.47705078 93.17700195 C85.14705078 63.80700195 84.81705078 34.43700195 84.47705078 4.17700195 C76.44118632 2.18650111 76.44118632 2.18650111 69.47705078 3.17700195 C66.95728356 3.25721086 64.4355744 3.2846696 61.91455078 3.2746582 C61.18204102 3.27319794 60.44953125 3.27173767 59.69482422 3.27023315 C58.11359984 3.26644487 56.53237963 3.2603472 54.95117188 3.25216675 C52.44546662 3.23934028 49.93981465 3.23287152 47.43408203 3.22802734 C41.21269984 3.21469518 34.99136866 3.19047224 28.77001953 3.16662598 C23.50618778 3.14686756 18.24237489 3.13123952 12.97851562 3.12106323 C10.51575305 3.11460347 8.05306894 3.10209656 5.59033203 3.08935547 C4.07340563 3.08572123 2.55647852 3.08236971 1.03955078 3.0793457 C-0.27916016 3.07410889 -1.59787109 3.06887207 -2.95654297 3.06347656 C-6.24539927 3.16816702 -9.29800152 3.54677889 -12.52294922 4.17700195 C-12.19294922 3.18700195 -11.86294922 2.19700195 -11.52294922 1.17700195 C-7.66852074 -0.10780754 -4.01782687 0.01312822 0 0 Z " fill="#80CBC8" transform="translate(266.52294921875,16.822998046875)"/>
<path d="M0 0 C1.65746703 0.00574918 3.31491927 0.01729973 4.97232056 0.03314209 C6.32593437 0.04032509 6.32593437 0.04032509 7.70689392 0.0476532 C10.70640923 0.06541649 13.70578475 0.09114017 16.70523071 0.11810303 C18.78169744 0.13478439 20.85816432 0.15144676 22.93463135 0.16809082 C27.29440743 0.20462716 31.65411393 0.24586568 36.01382446 0.28948975 C41.60838248 0.34446088 47.20289905 0.38100078 52.7976284 0.41312027 C57.08875878 0.44094825 61.37968887 0.48200307 65.67067337 0.52672577 C67.73355774 0.5459603 69.79649436 0.5602361 71.85944748 0.56952667 C74.74246014 0.58381228 77.62468633 0.61669254 80.50747681 0.65423584 C81.79336952 0.65443977 81.79336952 0.65443977 83.10523987 0.65464783 C88.90706441 0.75797079 88.90706441 0.75797079 91.08953762 2.38460636 C93.37227479 5.44882388 92.75603931 9.30383452 92.70986938 12.98016357 C92.7105265 14.34144379 92.7105265 14.34144379 92.7111969 15.73022461 C92.7091049 18.73343329 92.68575434 21.73608548 92.66226196 24.73919678 C92.65666748 26.81998896 92.65239668 28.9007851 92.6493988 30.98158264 C92.63793847 36.46107879 92.60846095 41.94033679 92.57528687 47.41973877 C92.54461166 53.00991596 92.53089891 58.60013158 92.51577759 64.19036865 C92.48359249 75.16117647 92.43238169 86.13180746 92.36929321 97.10247803 C91.37929321 97.59747803 91.37929321 97.59747803 90.36929321 98.10247803 C90.37151382 96.93958755 90.37373444 95.77669708 90.37602234 94.5785675 C90.39625233 83.64478435 90.41126466 72.71100497 90.42110538 61.77720737 C90.42633458 56.15539841 90.43343287 50.5336045 90.44473267 44.9118042 C90.45556027 39.49129525 90.46156978 34.07080083 90.46417046 28.65028191 C90.46602494 26.57732858 90.46964598 24.50437609 90.47502327 22.43142891 C90.48223202 19.5386391 90.48328423 16.64591007 90.4828186 13.75311279 C90.48821152 12.45407768 90.48821152 12.45407768 90.49371338 11.12879944 C90.86276359 7.30732315 90.86276359 7.30732315 89.36929321 4.10247803 C86.51952253 3.98786867 83.69300296 3.93762276 80.8421936 3.92889404 C79.94793167 3.92220703 79.05366974 3.91552002 78.13230896 3.90863037 C76.18377629 3.89454547 74.23522679 3.88266248 72.28666878 3.87268257 C69.2069246 3.85633105 66.12730543 3.83309657 63.04762268 3.80778503 C54.28910502 3.73684227 45.53053631 3.67681165 36.7718811 3.62567139 C31.42145257 3.59394757 26.07116699 3.55268875 20.72085381 3.505476 C18.67666626 3.4894155 16.63244574 3.47711277 14.58821297 3.4685688 C11.73392276 3.45646699 8.87997099 3.43233937 6.02578735 3.40545654 C5.17428101 3.4048674 4.32277466 3.40427826 3.44546509 3.40367126 C-2.40281117 3.33037365 -2.40281117 3.33037365 -4.63070679 1.10247803 C-3.63070679 0.10247803 -3.63070679 0.10247803 0 0 Z " fill="#85CFCC" transform="translate(356.6307067871094,109.89752197265625)"/>
<path d="M0 0 C0.99 0.495 0.99 0.495 2 1 C1.98513224 12.77878978 1.94357045 24.5571537 1.86790943 36.33571911 C1.83361603 41.80500461 1.80852576 47.27401009 1.80444336 52.7434082 C1.80016551 58.02156555 1.77174501 63.29909094 1.72656822 68.57705116 C1.71357686 70.59083691 1.70929132 72.60469823 1.71384621 74.61852074 C1.7187405 77.43932742 1.69271207 80.25827877 1.65942383 83.07885742 C1.66804947 83.91179825 1.67667511 84.74473907 1.68556213 85.60292053 C1.60583661 89.63189542 1.2762638 91.58032381 -0.98937988 95.02209473 C-5.06643266 97.7006207 -8.05102538 97.67192265 -12.8293457 97.56762695 C-14.14717293 97.56872215 -14.14717293 97.56872215 -15.49162292 97.56983948 C-18.3869769 97.56636423 -21.28070937 97.5275064 -24.17578125 97.48828125 C-26.18644838 97.47895289 -28.19712689 97.47183689 -30.20780945 97.46684265 C-35.49349481 97.44777472 -40.77849048 97.39867523 -46.06390381 97.34332275 C-51.45982534 97.29212613 -56.85585859 97.2693277 -62.25195312 97.24414062 C-72.83493803 97.19055667 -83.41741161 97.10524596 -94 97 C-94 96.67 -94 96.34 -94 96 C-92.90863235 95.99191315 -91.81726471 95.98382629 -90.69282532 95.97549438 C-80.40769382 95.89800962 -70.12269423 95.8102643 -59.83773518 95.71247292 C-54.55013465 95.66252717 -49.26255393 95.61619685 -43.97485352 95.578125 C-38.87193369 95.54125063 -33.7691803 95.49488458 -28.66640282 95.44193649 C-26.71959541 95.42340403 -24.77275234 95.40829183 -22.82589149 95.39665604 C-20.09900494 95.37977408 -17.37249861 95.3507341 -14.64575195 95.31884766 C-13.84086334 95.31668747 -13.03597473 95.31452728 -12.20669556 95.31230164 C-8.04268959 95.25009953 -4.74641437 94.87368851 -1 93 C-1.00222061 91.8496376 -1.00444122 90.69927521 -1.00672913 89.51405334 C-1.02695922 78.69799941 -1.0419715 67.8819493 -1.05181217 57.06588078 C-1.05704134 51.50460589 -1.06413958 45.94334621 -1.07543945 40.38208008 C-1.08626715 35.01992581 -1.09227658 29.65778622 -1.09487724 24.29562187 C-1.09673171 22.24499722 -1.10035272 20.1943734 -1.10573006 18.14375496 C-1.11293893 15.28209797 -1.11399101 12.42050243 -1.11352539 9.55883789 C-1.11712067 8.70216522 -1.12071594 7.84549255 -1.12442017 6.96286011 C-1.11405216 1.11405216 -1.11405216 1.11405216 0 0 Z " fill="#83CDCA" transform="translate(352,210)"/>
<path d="M0 0 C0.33 0 0.66 0 1 0 C1.00364563 1.10611633 1.00729126 2.21223267 1.01104736 3.35186768 C1.04796921 13.76982857 1.10571103 24.18749311 1.18390274 34.60522842 C1.22343236 39.96127814 1.25559393 45.31716209 1.27099609 50.67333984 C1.28612653 55.84121006 1.32050775 61.00862472 1.36830902 66.17629242 C1.38316015 68.14903558 1.39104314 70.12184376 1.39188385 72.09464264 C1.39424405 74.85558287 1.42124668 77.61525442 1.45410156 80.37597656 C1.4490712 81.19381119 1.44404083 82.01164581 1.43885803 82.85426331 C1.50124077 86.23668121 1.75225932 88.59246716 3.52500916 91.50863647 C7.00889545 93.60793351 10.19742376 93.54351249 14.14575195 93.48583984 C14.96414551 93.48963654 15.78253906 93.49343323 16.62573242 93.49734497 C19.33030576 93.50475194 22.03380338 93.48336103 24.73828125 93.4609375 C26.62151463 93.45855235 28.50475041 93.4576479 30.38798523 93.4581604 C34.33652634 93.45503179 38.28470451 93.43846609 42.2331543 93.41162109 C47.28368859 93.37771126 52.3338228 93.36999061 57.38445759 93.37151146 C61.27505788 93.37096625 65.16557145 93.35997378 69.05614281 93.34550858 C70.9175876 93.33916189 72.77904219 93.33520668 74.64049721 93.33372116 C77.24918783 93.32936148 79.85746372 93.3118016 82.46606445 93.29052734 C83.61110695 93.2918869 83.61110695 93.2918869 84.77928162 93.29327393 C89.53594472 93.23684605 93.47930861 92.49617792 98 91 C98.33 88.03 98.66 85.06 99 82 C99.33 82 99.66 82 100 82 C100.90487275 85.53722984 101.28571809 87.3714202 99.75 90.75 C98 93 98 93 95 95 C92.12763623 95.21033657 89.35087838 95.30407531 86.47705078 95.30639648 C85.60682281 95.31472 84.73659485 95.32304352 83.83999634 95.33161926 C80.95838977 95.35574785 78.07700943 95.36449479 75.1953125 95.37109375 C73.1937554 95.3800578 71.192199 95.3891796 69.19064331 95.39845276 C64.9924761 95.41495301 60.79438874 95.42264478 56.59619141 95.42553711 C51.21675647 95.43092244 45.83807192 95.46860443 40.45884895 95.51428127 C36.32385518 95.54402393 32.18904272 95.55126006 28.05395126 95.55226326 C26.07079506 95.55647099 24.08763858 95.56892738 22.10458755 95.58978081 C19.32974324 95.61663773 16.55664621 95.61188701 13.78173828 95.59936523 C12.96286133 95.61419952 12.14398438 95.62903381 11.30029297 95.64431763 C7.29829361 95.59289161 5.40744466 95.26848001 1.98661804 93.01437378 C-0.70190957 88.93496498 -0.67206712 85.95559388 -0.56762695 81.1706543 C-0.56835709 80.29210281 -0.56908722 79.41355133 -0.56983948 78.50837708 C-0.56636423 75.6130231 -0.5275064 72.71929063 -0.48828125 69.82421875 C-0.47895289 67.81355162 -0.47183689 65.80287311 -0.46684265 63.79219055 C-0.44777472 58.50650519 -0.39867523 53.22150952 -0.34332275 47.93609619 C-0.29212613 42.54017466 -0.2693277 37.14414141 -0.24414062 31.74804688 C-0.19055667 21.16506197 -0.10524596 10.58258839 0 0 Z " fill="#85CFCD" transform="translate(128,212)"/>
<path d="M0 0 C2.475 0.99 2.475 0.99 5 2 C5 2.66 5 3.32 5 4 C49.055 4.495 49.055 4.495 94 5 C94 5.33 94 5.66 94 6 C82.48230303 6.11584578 70.96474464 6.20469121 59.44658375 6.25906086 C54.09821305 6.28515559 48.75024092 6.32055188 43.40209961 6.37719727 C38.24088817 6.43152072 33.08006009 6.46142146 27.91858482 6.47438622 C25.94935762 6.48362545 23.98015143 6.50166769 22.01108742 6.52865028 C19.2527799 6.56494513 16.49605669 6.56994519 13.73754883 6.56762695 C12.92330948 6.58560333 12.10907013 6.60357971 11.27015686 6.62210083 C6.93331291 6.58265764 5.45751316 6.37143251 1.9539032 3.52702332 C0 1 0 1 0 0 Z " fill="#82D2D2" transform="translate(34,206)"/>
<path d="M0 0 C1.26115631 0.00007553 2.52231262 0.00015106 3.82168579 0.00022888 C5.20322712 0.0053359 6.58476806 0.0105519 7.96630859 0.01586914 C9.37592519 0.01773395 10.78554244 0.01915756 12.19515991 0.02015686 C15.90728542 0.02397706 19.61937187 0.03380311 23.33148193 0.04486084 C27.11860628 0.05508564 30.90573693 0.05965677 34.69287109 0.06469727 C42.12518058 0.07542581 49.55745786 0.09249628 56.98974609 0.11352539 C56.98974609 0.44352539 56.98974609 0.77352539 56.98974609 1.11352539 C56.22997467 1.12161224 55.47020325 1.1296991 54.68740845 1.13803101 C47.53583176 1.21589267 40.38446159 1.30315725 33.23313332 1.40105247 C29.55633968 1.45105091 25.87957528 1.49738032 22.20263672 1.53540039 C18.65580906 1.57220885 15.10922388 1.61855606 11.562603 1.6715889 C10.20783099 1.69015661 8.85300697 1.70525577 7.4981575 1.71686935 C5.60413753 1.73369049 3.71025022 1.76386156 1.81640625 1.79467773 C0.19758041 1.81466324 0.19758041 1.81466324 -1.45394897 1.83505249 C-4.1758403 1.86153046 -4.1758403 1.86153046 -6.01025391 4.11352539 C-7.00025391 4.11352539 -7.99025391 4.11352539 -9.01025391 4.11352539 C-8.68025391 3.12352539 -8.35025391 2.13352539 -8.01025391 1.11352539 C-5.26360002 -0.25980155 -3.07401323 -0.00612353 0 0 Z " fill="#81D1D0" transform="translate(45.01025390625,111.886474609375)"/>
<path d="M0 0 C0.33 0 0.66 0 1 0 C1 9.9 1 19.8 1 30 C0.01 30 -0.98 30 -2 30 C-1.88182083 26.04878772 -1.75757767 22.09781771 -1.62768555 18.14697266 C-1.56301749 16.14105193 -1.50316894 14.13497772 -1.44335938 12.12890625 C-1.40146484 10.87207031 -1.35957031 9.61523438 -1.31640625 8.3203125 C-1.26141968 6.57645264 -1.26141968 6.57645264 -1.20532227 4.79736328 C-1 2 -1 2 0 0 Z " fill="#80CAC9" transform="translate(228,31)"/>
<path d="M0 0 C0.33 0.99 0.66 1.98 1 3 C0.67 3.66 0.34 4.32 0 5 C-2.3140622 5.73075648 -4.64828869 6.40138258 -7 7 C-7 7.66 -7 8.32 -7 9 C-9 10.625 -9 10.625 -11 12 C-11.66 11.67 -12.32 11.34 -13 11 C-8.94510767 6.72916666 -5.03681497 3.07122864 0 0 Z " fill="#539C9A" transform="translate(127,82)"/>
<path d="M0 0 C2 4 2 4 2 8 C0.02 8.33 -1.96 8.66 -4 9 C-2.68 6.03 -1.36 3.06 0 0 Z " fill="#4E9E9B" transform="translate(108,102)"/>
<path d="M0 0 C0.86625 0.2784375 0.86625 0.2784375 1.75 0.5625 C4.20692525 1.04023546 5.64397534 0.75729364 8 0 C7 3 7 3 4 5 C1.8125 4.625 1.8125 4.625 0 4 C0 2.68 0 1.36 0 0 Z " fill="#55A6A4" transform="translate(227,76)"/>
<path d="M0 0 C-3.44450737 2.29633824 -5.93812283 2.54016485 -10 3 C-10 2.34 -10 1.68 -10 1 C-3.71428571 -1.42857143 -3.71428571 -1.42857143 0 0 Z " fill="#559F9A" transform="translate(246,74)"/>
<path d="M0 0 C2.23551759 3.35327639 2.17283528 3.90743657 1.625 7.6875 C1.51414063 8.49574219 1.40328125 9.30398437 1.2890625 10.13671875 C1.19367187 10.75160156 1.09828125 11.36648437 1 12 C0.67 12 0.34 12 0 12 C-0.19401633 10.18818595 -0.38004375 8.37551468 -0.5625 6.5625 C-0.66691406 5.55316406 -0.77132812 4.54382813 -0.87890625 3.50390625 C-0.91886719 2.67761719 -0.95882812 1.85132812 -1 1 C-0.67 0.67 -0.34 0.34 0 0 Z " fill="#74D0CB" transform="translate(35,116)"/>
<path d="M0 0 C5.75 0.75 5.75 0.75 8 3 C7.67 3.99 7.34 4.98 7 6 C7 5.34 7 4.68 7 4 C6.21625 3.71125 5.4325 3.4225 4.625 3.125 C2 2 2 2 0 0 Z " fill="#80CFC9" transform="translate(344,17)"/>
</svg>
